<svg xmlns="http://www.w3.org/2000/svg" viewBox="0 0 600 200">
  <!-- Hands forming heart shape -->
  <g fill="#ffffff">
    <!-- Left hand outline -->
    <path d="M50 120 C 45 115, 40 105, 45 95 C 50 85, 55 80, 65 85 C 75 90, 85 100, 90 110"/>
    
    <!-- Right hand outline -->
    <path d="M150 120 C 155 115, 160 105, 155 95 C 150 85, 145 80, 135 85 C 125 90, 115 100, 110 110"/>
    
    <!-- Heart shape in the middle -->
    <path d="M100 140 C 85 125, 70 100, 80 80 C 90 60, 110 70, 100 90 C 90 70, 110 60, 120 80 C 130 100, 115 125, 100 140 Z"/>
  </g>
  
  <!-- vibewell text -->
  <g fill="#ffffff">
    <!-- "v" -->
    <path d="M200 90 L215 130 L230 90"/>
    
    <!-- "i" -->
    <path d="M240 90 L240 130 M240 80 L240 82"/>
    
    <!-- "b" -->
    <path d="M260 70 L260 130 C260 130, 260 140, 275 140 C290 140, 290 130, 290 120 C290 110, 290 100, 275 100 C260 100, 260 110, 260 110"/>
    
    <!-- "e" -->
    <path d="M310 130 C310 130, 310 140, 325 140 C340 140, 340 120, 340 120 L310 120 C310 120, 310 100, 325 100 C340 100, 340 110, 340 110"/>
    
    <!-- "w" -->
    <path d="M360 90 L370 130 L380 110 L390 130 L400 90"/>
    
    <!-- "e" -->
    <path d="M420 130 C420 130, 420 140, 435 140 C450 140, 450 120, 450 120 L420 120 C420 120, 420 100, 435 100 C450 100, 450 110, 450 110"/>
    
    <!-- "l" -->
    <path d="M470 70 L470 130"/>
    
    <!-- "l" -->
    <path d="M490 70 L490 130"/>
  </g>
</svg> 